<?xml version="1.0" standalone="no"?>
<!DOCTYPE svg PUBLIC "-//W3C//DTD SVG 1.1//EN" "http://www.w3.org/Graphics/SVG/1.1/DTD/svg11.dtd" >
<!--
2013-9-30: Created.
-->
<svg>
<metadata>
Created by iconfont
</metadata>
<defs>

<font id="iconfont" horiz-adv-x="1024" >
  <font-face
    font-family="iconfont"
    font-weight="500"
    font-stretch="normal"
    units-per-em="1024"
    ascent="896"
    descent="-128"
  />
    <missing-glyph />
    
    <glyph glyph-name="wenjianjia" unicode="&#58895;" d="M458.24 608H298.666667c-29.44 0-53.333333-23.893333-53.333334-53.333333v-394.666667H725.333333c29.44 0 53.333333 23.893333 53.333334 53.333333v234.666667c0 29.44-23.893333 53.333333-53.333334 53.333333h-212.138666l-54.954667 106.666667z"  horiz-adv-x="1024" />

    
    <glyph glyph-name="wenjian" unicode="&#58884;" d="M511.9785344 654.63602254h-194.54194842c-29.6240416 0-53.57014585-23.80120132-53.57014573-53.15690715v-489.36557554c0-29.33424019 23.95146956-53.17837726 53.57014573-53.17837726h388.45599307c29.5703753 0 53.56477605 23.84413258 53.56477605 53.17837726v294.40502768h-247.4788207v248.11745501z m48.96016837 0.14490283v-198.56695321h199.2002223l-199.2002223 198.56695321z"  horiz-adv-x="1024" />

    
    <glyph glyph-name="file" unicode="&#58885;" d="M861.9 52.5c0-31.1-25.2-56.2-56.2-56.2H103.5l98.3 454.2c0 31 25 56.2 56.1 56.2h646.2c31 0 56.1-25.2 56.1-56.2l-98.3-398zM215.8 548.9h632v55.2c0 31-25.2 56.2-56.2 56.2h-337v50.9c0 31-25.2 56.2-56.2 56.2H117.6c-31 0-56.2-25.2-56.2-56.2v-658.6l98.2 440.2c0 30.9 25.2 56.1 56.2 56.1z m0 0"  horiz-adv-x="1024" />

    
    <glyph glyph-name="gerenxinxixuanzetouxiang-congxiangcexuanze" unicode="&#58935;" d="M947.2 793.6H76.8a76.8 76.8 0 0 1-76.8-76.8v-665.6a76.8 76.8 0 0 1 76.8-76.8h870.4a76.8 76.8 0 0 1 76.8 76.8V716.8a76.8 76.8 0 0 1-76.8 76.8zM76.8 742.4h870.4c14.1312 0 25.6-11.4944 25.6-25.6v-341.6064C929.28 414.6432 854.5792 460.8 742.4 460.8c-94.8736 0-175.4624-58.0864-253.3632-114.2784C409.8304 289.4336 327.9616 230.4 230.4 230.4c-75.9296 0-155.1872 66.1504-179.2 87.936V716.8c0 14.1056 11.4944 25.6 25.6 25.6z m870.4-716.8H76.8c-14.1056 0-25.6 11.4688-25.6 25.6v200.6784C93.4144 219.9552 160.9216 179.2 230.4 179.2c114.0992 0 202.7776 63.9488 288.5632 125.7984C593.5872 358.784 664.0384 409.6 742.4 409.6c143.4624 0 214.272-87.2192 230.4-110.1312V51.2a25.6 25.6 0 0 0-25.6-25.6zM281.6 384a128 128 0 1 1-0.0256 256.0256A128 128 0 0 1 281.6 384z m0 204.8c42.3424 0 76.8-34.4576 76.8-76.8s-34.4576-76.8-76.8-76.8-76.8 34.4576-76.8 76.8 34.4576 76.8 76.8 76.8z"  horiz-adv-x="1024" />

    
    <glyph glyph-name="zengjiahuabanfuben" unicode="&#58928;" d="M512 784c-220.91 0-400-179.09-400-400s179.09-400 400-400 400 179.09 400 400-179.09 400-400 400z m186.67-426.67H325.33v53.34h373.34z"  horiz-adv-x="1024" />

    
    <glyph glyph-name="jianshao" unicode="&#59092;" d="M512.002 896C229.673 896 0 666.327 0 383.998 0 101.673 229.673-128 512.002-128 794.327-128 1024 101.673 1024 383.998 1024 666.327 794.327 896 512.002 896z m0-970.039c-252.578 0-458.037 205.464-458.041 458.037 0 252.578 205.463 458.042 458.041 458.042 252.573 0 458.037-205.464 458.037-458.042 0-252.572-205.465-458.037-458.037-458.037zM733.592 412.088H290.408c-15.448 0-28.088-12.639-28.088-28.088 0-15.448 12.639-28.088 28.088-28.088h443.185c15.448 0 28.088 12.639 28.088 28.088-0.001 15.448-12.641 28.088-28.089 28.088z"  horiz-adv-x="1024" />

    
    <glyph glyph-name="zengjia" unicode="&#58918;" d="M509.2 829.1c-245.1 0-443.9-198.7-443.9-443.9 0-245.1 198.7-443.9 443.9-443.9S953.1 140 953.1 385.2c0 245.1-198.7 443.9-443.9 443.9z m238.7-478H543.3v-204.6c0-18.8-15.3-34.1-34.1-34.1s-34.1 15.3-34.1 34.1V351.1H270.6c-18.8 0-34.1 15.3-34.1 34.1s15.3 34.1 34.1 34.1h204.6V623.8c0 18.8 15.3 34.1 34.1 34.1s34.1-15.3 34.1-34.1v-204.6H748c18.8 0 34.1-15.3 34.1-34.1-0.1-18.7-15.5-34-34.2-34z"  horiz-adv-x="1024" />

    
    <glyph glyph-name="xiugaimima" unicode="&#58913;" d="M653.531434 491.7347l-9.127891 0 0 23.662933c0 79.523171-62.815651 144.223752-140.027174 144.223752-77.207429 0-140.027174-64.699558-140.027174-144.223752l0-23.662933-9.119705 0c-33.57877 0-60.893882-27.578102-60.893882-61.480236L294.335608 235.115088c0-33.904181 27.316136-61.482283 60.893882-61.482283l298.30092 0c33.573653 0 60.885695 27.578102 60.885695 61.482283L714.416106 430.254463C714.417129 464.156598 687.104063 491.7347 653.531434 491.7347zM525.380752 297.529603l0-50.713009c0-11.136641-8.583492-20.166295-19.174712-20.166295l-3.65832 0c-10.591219 0-19.174712 9.028631-19.174712 20.166295l0 50.714032c-18.542308 8.523117-31.505551 27.973098-31.505551 50.617841 0 30.500665 23.51046 55.225789 52.509934 55.225789 29.001521 0 52.509934-24.725124 52.509934-55.225789C556.886303 325.502701 543.92306 306.05272 525.380752 297.529603zM609.398284 491.7347 399.357524 491.7347l0 23.662933c0 60.038398 47.106878 108.877733 105.018845 108.877733 57.911968 0 105.021915-48.839335 105.021915-108.877733L609.398284 491.7347zM504.373299 827.510116C260.578784 827.510116 66.792219 631.850901 66.792219 385.704828c0-246.150166 193.786565-441.809381 437.580057-441.809381 243.795539 0 437.58722 195.659215 437.58722 441.809381C941.960519 631.850901 748.168838 827.510116 504.373299 827.510116zM504.373299-5.611555c-212.537627 0-387.570059 176.722934-387.570059 391.31536 0 214.589356 175.031409 391.310244 387.570059 391.310244 212.543767 0 387.575176-176.720887 387.575176-391.310244C891.947452 171.111378 716.916043-5.611555 504.373299-5.611555z"  horiz-adv-x="1024" />

    
    <glyph glyph-name="gerenziliao" unicode="&#58951;" d="M406.64064 323.74784c84.12672 32.68608 143.98464 114.31936 143.98464 209.8688 0 124.25216-101.04832 225.31072-225.29536 225.31072-124.25216 0-225.29536-101.05856-225.29536-225.31072 0-95.55456 59.8528-177.18272 143.97952-209.8688C103.90528 287.46752-0.03072 160.34816-0.03072 9.0624H44.8512c0 154.68544 125.81376 280.49408 280.47872 280.49408s280.47872-125.80864 280.47872-280.49408h44.8768c-0.00512 151.28576-103.936 278.40512-244.0448 314.68544zM144.89088 533.62176c0 99.50208 80.95232 180.43392 180.43904 180.43392 99.4816 0 180.43392-80.93696 180.43392-180.43392 0-99.47136-80.95232-180.4288-180.43392-180.4288-99.48672-0.00512-180.43904 80.95744-180.43904 180.4288z m820.14208-530.71872h-201.76896v40.832h201.76896a18.2016 18.2016 0 0 1 18.17088 18.18112V706.10432a18.18624 18.18624 0 0 1-18.17088 18.16576H491.05408v40.82688h473.97888c32.54272 0 58.99264-26.45504 58.99264-58.99264v-644.18816c0.00512-32.54784-26.4448-59.01312-58.99264-59.01312zM587.1104 630.144h318.8224v-46.4896h-318.8224v46.4896z m0-145.19808h318.8224v-46.49984h-318.8224v46.49984z m83.89632-154.79808h234.92608v-46.49984h-234.92608v46.49984z"  horiz-adv-x="1024" />

    
    <glyph glyph-name="xiugaitouxiang" unicode="&#59161;" d="M690.5856 126.1568c-11.264 0-20.48 9.216-20.48 20.48v111.0016c0 42.3936-34.6112 77.0048-77.0048 77.0048h-158.1056c-42.3936 0-77.0048-34.6112-77.0048-77.0048v-111.0016c0-11.264-9.216-20.48-20.48-20.48s-20.48 9.216-20.48 20.48v111.0016c0 65.1264 52.8384 117.9648 117.9648 117.9648h158.1056c65.1264 0 117.9648-52.8384 117.9648-117.9648v-111.0016c0-11.264-9.0112-20.48-20.48-20.48zM514.048 339.7632c-82.7392 0-149.9136 67.1744-149.9136 149.9136s67.1744 149.9136 149.9136 149.9136c82.7392 0 149.9136-67.1744 149.9136-149.9136s-67.1744-149.9136-149.9136-149.9136z m0 258.8672c-60.0064 0-108.9536-48.9472-108.9536-108.9536s48.9472-108.9536 108.9536-108.9536 108.9536 48.9472 108.9536 108.9536-48.7424 108.9536-108.9536 108.9536zM141.5168 528.9984c-11.264 0-20.48 9.216-20.48 20.48v98.9184c0 11.264 9.216 20.48 20.48 20.48h133.3248c11.264 0 20.48-9.216 20.48-20.48s-9.216-20.48-20.48-20.48H161.9968v-78.4384c0-11.264-9.216-20.48-20.48-20.48zM274.8416 96.8704H141.5168c-11.264 0-20.48 9.216-20.48 20.48v100.9664c0 11.264 9.216 20.48 20.48 20.48s20.48-9.216 20.48-20.48v-80.4864h112.8448c11.264 0 20.48-9.216 20.48-20.48s-9.216-20.48-20.48-20.48zM886.784 96.8704h-119.1936c-11.264 0-20.48 9.216-20.48 20.48s9.216 20.48 20.48 20.48H866.304v76.3904c0 11.264 9.216 20.48 20.48 20.48s20.48-9.216 20.48-20.48v-96.8704c0-11.264-9.216-20.48-20.48-20.48zM886.784 531.0464c-11.264 0-20.48 9.216-20.48 20.48v76.3904h-118.9888c-11.264 0-20.48 9.216-20.48 20.48s9.216 20.48 20.48 20.48H886.784c11.264 0 20.48-9.216 20.48-20.48v-96.8704c0-11.264-9.216-20.48-20.48-20.48z"  horiz-adv-x="1024" />

    
    <glyph glyph-name="tuichuxitong" unicode="&#59011;" d="M784.517 743.694a477.49 477.49 0 0 0 84.998-76.921 502.636 502.636 0 0 0 63.751-92.84 458.118 458.118 0 0 0 40.374-105.574 467.665 467.665 0 0 0 13.852-113q0-98.68-37.72-185.16T847.767 19.533q-64.315-64.198-150.912-101.865T511.451-120q-97.752 0-184.338 37.667T175.7 19.522Q110.883 83.72 73.696 170.189T36.509 355.348a461.378 461.378 0 0 0 13.276 110.347 489.722 489.722 0 0 0 37.72 102.92 453.802 453.802 0 0 0 60.566 91.253 516.04 516.04 0 0 0 80.757 76.4c15.578 11.315 32.328 15.066 50.464 12.786 11.72-1.513 23.814-12.286 24.859-25.318 1.758-21.822-13.746-39.105-31.231-52.424q-78.712-57.486-120.577-141.12T110.5 350.446q0-82.377 31.23-155.398t85.585-127.321q54.342-54.343 127.438-86.128t155.569-31.828q82.462 0 155.569 31.828t127.438 86.128q54.343 54.342 86.202 127.32t31.785 155.4a394.41 394.41 0 0 1-44.955 184.114q-44.976 86.756-126.181 142.931c-18.327 12.478-31.774 30.176-29.558 52.02 1.577 15.503 10.836 23.537 22.888 25.317 18.487 2.738 35.418-0.533 50.996-11.135zM501.414 888a42.26 42.26 0 0 0 42.291-42.26v-422.645a42.265 42.265 0 0 0-84.529 0V845.74A42.26 42.26 0 0 0 501.414 888z"  horiz-adv-x="1024" />

    
    <glyph glyph-name="xitongguanli" unicode="&#58902;" d="M998.253714 471.625143a67.876571 67.876571 0 0 1-48.274285 20.114286h-44.178286c-6.144 0-15.36 6.509714-18.285714 15.36l-26.624 64.365714c-2.925714 5.632-1.462857 16.603429 2.998857 20.992l31.305143 31.232a68.022857 68.022857 0 0 1 20.041142 48.566857 67.510857 67.510857 0 0 1-20.041142 48.274286l-51.931429 51.785143a68.608 68.608 0 0 1-48.420571 19.456 68.534857 68.534857 0 0 1-48.274286-19.382858l-31.378286-31.232c-2.121143-2.121143-7.826286-4.388571-14.116571-4.388571a14.848 14.848 0 0 0-6.802286 1.316571 43.52 43.52 0 0 1-2.925714 1.462858l-64.073143 26.185142c-5.997714 1.828571-12.8 11.044571-12.8 17.334858V827.099429a68.461714 68.461714 0 0 1-68.388572 68.388571H472.722286a68.534857 68.534857 0 0 1-68.461715-68.388571v-44.032c0-6.217143-6.436571-15.506286-15.36-18.358858l-61.513142-25.234285a33.572571 33.572571 0 0 1-2.925715-1.389715c-4.608-2.413714-17.188571-0.658286-20.918857 3.072l-31.232 31.158858a68.608 68.608 0 0 1-48.420571 19.529142 68.461714 68.461714 0 0 1-48.274286-19.382857l-51.931429-51.931428a67.876571 67.876571 0 0 1-20.041142-48.420572c0-18.285714 7.094857-35.474286 19.968-48.274285l31.232-31.232c4.461714-4.461714 6.144-15.433143 3.218285-20.845715a24.868571 24.868571 0 0 1-1.462857-3.072l-26.331428-64.219428c-1.828571-5.924571-10.971429-12.726857-17.261715-12.726857H68.973714a68.534857 68.534857 0 0 1-68.461714-68.388572v-73.362286c0-37.741714 30.72-68.388571 68.388571-68.388571h43.958858c6.217143 0 15.433143-6.582857 18.358857-15.579429l26.697143-64.219428c2.925714-5.485714 1.316571-16.676571-2.998858-21.065143l-31.451428-31.305143a68.608 68.608 0 0 1 0.146286-96.694857l51.931428-51.858286c12.288-12.361143 29.988571-19.456 48.420572-19.456a68.315429 68.315429 0 0 1 48.274285 19.456l31.378286 31.305143c2.048 2.048 7.68 4.242286 13.897143 4.242286 2.779429 0 5.266286-0.438857 6.802286-1.316572a31.305143 31.305143 0 0 1 2.925714-1.389714l64.219428-26.185143c6.144-1.901714 12.8-10.971429 12.8-17.334857v-43.885714c0-37.741714 30.72-68.461714 68.461715-68.461714h73.362285c37.741714 0 68.388571 30.72 68.388572 68.388571v43.885714c0 6.070857 6.582857 15.506286 15.36 18.285715l61.586286 25.307428a33.938286 33.938286 0 0 1 3.072 1.462857 14.848 14.848 0 0 0 6.729142 1.243429c6.363429 0 11.995429-2.194286 14.043429-4.315429l31.158857-31.232a68.754286 68.754286 0 0 1 48.420572-19.456 68.315429 68.315429 0 0 1 48.274285 19.456l52.004572 51.931429a67.949714 67.949714 0 0 1 20.041143 48.347428 68.022857 68.022857 0 0 1-20.041143 48.420572l-31.305143 31.232c-4.169143 4.169143-5.997714 15.433143-1.682286 23.844571l26.185143 64c1.901714 5.997714 11.190857 12.873143 17.408 12.873143h44.032c37.741714 0 68.388571 30.72 68.388571 68.388572V423.131429a67.730286 67.730286 0 0 1-19.894857 48.493714z m-169.472-181.394286l-23.917714-58.660571c-15.872-29.915429-9.654857-71.899429 14.189714-95.670857l31.305143-31.232c0.950857-0.877714 1.462857-2.121143 1.462857-3.510858s-0.512-2.633143-1.462857-3.584l-52.077714-51.931428c-2.340571-2.413714-4.681143-2.340571-7.021714 0l-31.085715 31.232c-14.262857 14.262857-36.352 22.747429-59.245714 22.747428-12.873143 0-25.014857-2.779429-34.596571-7.68l-58.002286-23.917714c-32.036571-10.093714-57.197714-44.324571-57.197714-77.824v-43.885714a5.193143 5.193143 0 0 0-5.12-5.12H472.795429a5.266286 5.266286 0 0 0-5.12 5.12v43.885714c0 33.645714-24.283429 67.510857-54.710858 76.873143l-59.977142 24.576a77.019429 77.019429 0 0 1-35.108572 7.972571c-22.820571 0-44.909714-8.484571-59.026286-22.674285l-31.378285-31.305143c-2.486857-2.486857-4.461714-2.56-7.021715 0l-51.931428 51.931428a5.266286 5.266286 0 0 0 0 7.168l31.158857 31.085715c23.552 23.405714 30.427429 65.462857 15.579429 92.891428l-24.429715 58.806857c-9.874286 32.036571-44.032 57.344-77.750857 57.417143H68.900571a5.046857 5.046857 0 0 0-5.046857 5.046857V423.350857c0 2.779429 2.267429 4.973714 5.12 4.973714h44.032c33.133714 0 67.730286 24.868571 76.8 54.710858l24.722286 59.977142c15.286857 29.988571 8.850286 70.582857-14.848 94.354286l-31.305143 31.305143a4.827429 4.827429 0 0 0-1.316571 3.657143c0 0.731429 0.146286 2.121143 1.462857 3.437714l51.931428 51.858286c2.340571 2.340571 4.608 2.413714 7.021715 0l31.305143-31.305143c14.336-14.262857 36.352-22.747429 58.953142-22.747429 12.8 0 25.014857 2.779429 34.742858 7.68l57.782857 23.844572a85.577143 85.577143 0 0 1 57.417143 77.970286V827.099429c0 2.633143 2.413714 5.046857 5.12 5.046857h73.289142c2.633143 0 5.046857-2.413714 5.046858-5.046857v-44.032c0-33.206857 24.868571-67.803429 54.637714-76.946286l59.830857-24.576c10.166857-5.193143 22.308571-7.899429 35.181714-7.899429 22.893714 0 44.982857 8.484571 59.245715 22.674286l31.305142 31.232c2.413714 2.413714 4.681143 2.340571 7.094858 0l52.077714-51.931429a4.827429 4.827429 0 0 0 1.389714-3.510857 5.046857 5.046857 0 0 0-1.462857-3.584l-31.378286-31.232c-23.405714-23.478857-30.134857-65.462857-15.36-92.745143l24.283429-58.953142c10.020571-32.036571 44.251429-57.197714 77.824-57.197715h44.105143c1.316571 0 2.486857-0.512 3.437714-1.462857 0.950857-1.024 1.462857-2.194286 1.462857-3.657143v-73.362285a5.193143 5.193143 0 0 0-4.973714-5.046858h-44.105143c-33.133714 0-67.730286-24.868571-76.946286-54.710857zM509.513143 601.892571a215.478857 215.478857 0 0 1-215.259429-215.186285 215.478857 215.478857 0 0 1 215.259429-215.186286 215.405714 215.405714 0 0 1 215.186286 215.186286 215.405714 215.405714 0 0 1-215.186286 215.186285z m0-367.030857a151.990857 151.990857 0 0 0-151.917714 151.844572c0 83.675429 68.169143 151.771429 151.917714 151.771428 83.675429 0 151.771429-68.022857 151.771428-151.771428A151.990857 151.990857 0 0 0 509.513143 234.788571z"  horiz-adv-x="1024" />

    
    <glyph glyph-name="shenhe" unicode="&#58883;" d="M680.807 684.902H204.898c-11.534 0-20.891-8.344-20.891-18.636 0-10.293 9.357-18.628 20.891-18.628h475.933c11.529 0 20.886 8.336 20.886 18.628 0.001 10.293-9.373 18.636-20.91 18.636z m20.874-152.17c0 10.292-9.357 18.636-20.89 18.636H204.874c-11.509 0-20.866-8.344-20.866-18.636 0-10.293 9.357-18.632 20.866-18.632h475.957c11.493 0 20.85 8.34 20.85 18.632zM204.858 417.81c-11.538 0-20.891-8.34-20.891-18.632 0-10.292 9.353-18.632 20.891-18.632h305.436c11.509 0 20.866 8.34 20.866 18.632 0 10.293-9.357 18.632-20.866 18.632H204.858z m239.286-133.554h-239.27c-11.529 0-20.891-8.36-20.891-18.628 0-10.297 9.361-18.636 20.891-18.636h239.27c11.534 0 20.891 8.34 20.891 18.636 0 10.268-9.357 18.628-20.891 18.628z m466.947-190.249h-53.457l-104.33 130.288c42.94 13.482 73.941 49.668 73.941 92.523 0 54.31-49.47 98.491-110.331 98.491-60.857 0-110.343-44.18-110.343-98.491 0-42.854 31.037-79.041 73.957-92.523L576.175 94.007h-53.432c-26.871 0-48.717-19.482-48.717-43.464v-70.054c0-23.978 21.847-43.485 48.717-43.485h388.303c26.871 0.016 48.738 19.507 48.738 43.505v70.054c0.02 23.962-21.823 43.444-48.693 43.444z m-262.745 222.81c0 33.75 30.736 61.23 68.566 61.23 37.839 0 68.57-27.46 68.57-61.23 0-33.538-30.386-60.815-67.94-61.141h-1.281c-37.484 0.326-67.915 27.579-67.915 61.141z m62.163-119.234l12.282 0.692 83.505-104.268H627.537l82.972 103.576z m207.579-217.115h-0.045v0.02c0-3.377-3.169-6.204-6.953-6.204H522.759c-3.783 0-6.957 2.827-6.957 6.204v70.03c0 3.381 3.173 6.208 6.957 6.208h388.352c3.779 0 6.977-2.827 6.977-6.208v-70.05z m-811.54 78.17V788.515c0 3.372 3.173 6.2 6.957 6.2h664.741c3.8 0 6.977-2.827 6.977-6.2v-350.567c15.659-7.058 29.755-16.456 41.757-27.704V788.515c0 23.982-21.867 43.489-48.734 43.489H113.505c-26.871 0-48.721-19.507-48.721-43.489v-729.877c0-23.982 21.851-43.489 48.721-43.489h318.74v35.393c0 0.651 0.207 1.241 0.224 1.896H113.505c-3.763 0.001-6.957 2.824-6.957 6.2z"  horiz-adv-x="1024" />

    
    <glyph glyph-name="shenhechenggong" unicode="&#59317;" d="M894.1 418.2c-1.3 15.6-15.1 27.1-30.7 25.6-15.6-1.3-27.1-15.1-25.6-30.7 0.9-9.9 1.3-19.8 1.3-29.2 0-180.3-146.7-327-327-327S185 203.7 185 383.9s146.7 327 327 327c74.4 0 144.5-24.3 202.7-70.4 12.3-9.7 30.1-7.6 39.8 4.6 9.7 12.3 7.6 30.1-4.6 39.8-33.1 26.4-70 46.8-109.7 60.9C599 760.2 556 767.6 512 767.6c-51.8 0-102-10.2-149.3-30.2-45.7-19.4-86.7-47-121.9-82.2s-62.9-76.2-82.2-121.9c-20-47.3-30.2-97.5-30.2-149.3s10.2-102 30.2-149.3c19.4-45.7 47-86.7 82.2-121.9s76.2-62.9 121.9-82.2c47.3-20 97.5-30.2 149.3-30.2s102 10.2 149.3 30.2c45.7 19.4 86.7 47 121.9 82.2s62.9 76.2 82.2 121.9c20 47.3 30.2 97.5 30.2 149.3 0 11.1-0.5 22.7-1.5 34.2zM452.2 273.3L316.6 402.6c-11.3 10.8-29.2 10.4-40.1-0.9-10.8-11.3-10.4-29.3 0.9-40.1L413 232.3c10.5-10 24.3-15.8 38.8-16.1h1.2c14.2 0 27.7 5.2 38.3 14.5l364.5 321.7c11.7 10.4 12.9 28.2 2.5 40-10.3 11.7-28.2 12.9-40 2.5L454 273.3c-0.5-0.5-1.3-0.4-1.8 0z"  horiz-adv-x="1024" />

    
    <glyph glyph-name="qujingfuyou-" unicode="&#59082;" d="M614.4 696.2176H409.6c-15.54432 0-28.18048-12.12416-28.18048-27.01312 0-14.90944 12.63616-27.01312 28.18048-27.01312h204.8c15.54432 0 28.18048 12.12416 28.18048 27.01312S629.94432 696.2176 614.4 696.2176zM697.87648 736.44032c-15.54432 0-28.18048-12.12416-28.18048-27.01312v-109.24032c0-14.90944 12.63616-27.01312 28.18048-27.01312s28.18048 12.12416 28.18048 27.01312V709.4272c0 14.90944-12.63616 27.01312-28.18048 27.01312zM872.96 583.68c0 53.37088-36.72064 92.11904-87.30624 92.11904-12.71808 0-23.06048-9.80992-23.06048-21.89312 0-12.10368 10.3424-21.95456 23.06048-21.95456 39.26016 0 41.24672-40.20224 41.24672-48.27136v-438.43584c0-31.80544-11.44832-65.61792-32.6656-65.61792H247.97184c-23.77728 0-50.87232 34.95936-50.87232 65.61792V583.68c0 27.97568 19.37408 48.27136 46.05952 48.27136 12.71808 0 23.06048 9.85088 23.06048 21.95456 0 12.0832-10.3424 21.89312-23.06048 21.89312-51.65056 0-92.11904-40.46848-92.11904-92.11904v-438.43584c0-50.62656 42.33216-109.4656 96.93184-109.4656h546.26304c54.08768 0 78.72512 56.75008 78.72512 109.4656V583.68zM326.12352 737.32096c-15.54432 0-28.18048-12.12416-28.18048-27.01312v-110.10048c0-14.90944 12.63616-27.01312 28.18048-27.01312s28.18048 12.12416 28.18048 27.01312V710.30784c0 14.88896-12.63616 27.01312-28.18048 27.01312zM354.69312 500.26496a20.48 20.48 0 0 1 0-29.85984l127.42656-122.75712-127.42656-122.75712a20.48 20.48 0 0 1 0-29.88032c4.096-4.01408 9.6256-6.22592 15.48288-6.22592 5.89824 0 11.42784 2.21184 15.52384 6.22592l127.46752 122.69568 127.40608-122.69568c4.15744-4.01408 9.66656-6.22592 15.52384-6.22592 5.89824 0 11.3664 2.21184 15.52384 6.22592a20.62336 20.62336 0 0 1 0 29.88032l-127.42656 122.75712 127.42656 122.75712c4.15744 4.01408 6.47168 9.29792 6.47168 14.9504a20.5824 20.5824 0 0 1-6.47168 14.90944 21.93408 21.93408 0 0 1-15.48288 6.22592c-5.89824 0-11.40736-2.17088-15.5648-6.22592l-127.42656-122.69568-127.46752 122.69568c-4.096 4.05504-9.6256 6.22592-15.52384 6.22592-5.8368 0-11.3664-2.17088-15.4624-6.22592z"  horiz-adv-x="1024" />

    
    <glyph glyph-name="shuaxin" unicode="&#58992;" d="M1015.828685 432.64h-75.776C913.940685 638.976 731.156685 793.6 512.020685 793.6c-83.968 0-164.864-23.04-234.496-66.048-12.288-6.144-20.48-17.92-20.48-32.256 0-19.968 16.896-35.84 37.888-35.84 8.704 0 16.384 2.56 23.04 7.68C375.828685 702.976 442.388685 721.92 512.020685 721.92c178.176 0 326.144-122.88 351.232-288.768h-83.456c-6.144 0-10.24-6.656-7.168-11.776l118.272-201.728c3.072-5.12 11.264-5.12 13.824 0l117.76 201.728c3.584 5.12 0 11.264-6.656 11.264z m-237.056-286.72c-8.192 0-15.872-2.56-22.016-6.656-0.512-0.512-1.024-0.512-1.024-1.024-1.536-1.024-2.56-2.048-4.096-3.584-65.536-56.832-149.504-88.064-238.592-88.064-195.584 0-354.816 151.04-354.816 337.408v8.704h86.528c6.656 0 10.24 6.144 7.168 11.776l-117.76 201.728c-3.072 5.632-11.264 5.632-13.824 0L1.044685 404.48c-3.072-5.12 1.024-11.776 7.168-11.776H81.940685v-8.704c0-225.792 193.024-409.6 430.592-409.6 111.104 0 216.064 39.424 296.448 112.128l-0.512 0.512c5.12 6.144 8.704 14.336 8.704 22.528-0.512 19.968-17.408 36.352-38.4 36.352z"  horiz-adv-x="1024" />

    
    <glyph glyph-name="myorder" unicode="&#58926;" d="M954.182 302.182l-232.727 0c-12.847 0-23.273 10.426-23.273 23.273s10.426 23.273 23.273 23.273l232.727 0c12.847 0 23.273-10.426 23.273-23.273 0-12.847-10.426-23.273-23.273-23.273zM954.182 465.091l-209.455 0c-12.847 0-23.273 10.426-23.273 23.273 0 12.847 10.426 23.273 23.273 23.273l209.455 0c12.847 0 23.273-10.426 23.273-23.273 0-12.847-10.426-23.273-23.273-23.273zM954.182 628l-209.455 0c-12.847 0-23.273 10.426-23.273 23.273s10.426 23.273 23.273 23.273l209.455 0c12.847 0 23.273-10.426 23.273-23.273 0-12.847-10.426-23.273-23.273-23.273zM534.761 330.109c148.899-48.733 256.512-188.602 256.512-353.745 0-12.847-10.426-23.273-23.273-23.273s-23.273 10.426-23.273 23.273c0 179.945-145.873 325.818-325.818 325.818s-325.818-145.873-325.818-325.818c0-12.847-10.426-23.273-23.273-23.273s-23.273 10.426-23.273 23.273c0 165.143 107.613 305.012 256.512 353.745-83.13 42.31-140.148 128.419-140.148 228.073 0 141.405 114.595 256 256 256s256-114.595 256-256c0-99.654-57.065-185.763-140.148-228.073zM418.909 767.636c-115.665 0-209.455-93.789-209.455-209.455 0-115.665 93.789-209.455 209.455-209.455s209.455 93.789 209.455 209.455c0 115.665-93.789 209.455-209.455 209.455zM814.545 185.818l139.636 0c12.847 0 23.273-10.426 23.273-23.273s-10.426-23.273-23.273-23.273l-139.636 0c-12.847 0-23.273 10.426-23.273 23.273 0 12.847 10.426 23.273 23.273 23.273z"  horiz-adv-x="1024" />

    
    <glyph glyph-name="xitongyonghu" unicode="&#58889;" d="M655.999941 715.175544C618.397008 820.689093 522.169461 896 409.822084 896 264.861155 896 148.537278 770.631461 148.537278 618.669142c0-94.977075 44.738125-178.5536 112.747528-227.942229C107.374251 326.141301 0 168.484333 0-15.770167l73.372676 0c0 182.353783 130.644279 334.316103 297.074556 355.207733 1.793176 0 46.531301 3.800183 84.114228 0l3.5801 0c21.854493-3.311249 43.038734-8.850839 63.330138-16.392433-16.393684 31.638184-27.145239 67.120318-30.784112 104.903319-24.638043-11.719421-52.002115-18.225625-80.865502-18.225625-109.166177 0-196.860505 93.077609-196.860505 208.946314 0 115.873707 87.694328 208.946314 196.860505 208.946314 88.539647 0 162.952715-61.224344 187.91338-146.18264C615.578445 695.152991 635.13207 706.548539 655.999941 715.175544L655.999941 715.175544zM655.999941 715.175544M855.048772 276.596363c68.004401 49.388629 112.742526 132.970156 112.742526 227.94348 0 153.861786-118.115803 279.230325-263.07298 279.230325S443.438514 658.401629 443.438514 506.439309c0-94.972073 44.739376-178.5536 112.742526-227.942229-153.905553-64.584361-261.279804-222.242579-261.279804-406.495829l0 0 73.372676 0 0 0c0 182.353783 130.639277 334.316103 297.074556 355.212735 1.788174 0 46.531301 3.795182 84.109226 0l3.5801 0 0 0c162.853928-24.696816 288.12618-172.857701 288.12618-353.312018l0 0 75.164602 0 0 0C1114.541652 56.2545 1007.162399 213.911468 855.048772 276.596363L855.048772 276.596363 855.048772 276.596363zM704.719568 297.492995c-109.167428 0-196.855503 93.077609-196.855503 208.946314 0 115.873707 87.689326 208.951316 196.855503 208.951316s196.856754-93.077609 196.856754-208.951316C901.575072 390.570603 813.885745 297.492995 704.719568 297.492995L704.719568 297.492995 704.719568 297.492995zM704.719568 297.492995"  horiz-adv-x="1117" />

    
    <glyph glyph-name="reset" unicode="&#58961;" d="M725.333 362.667c0 46.933-38.4 85.333-85.333 85.333l-256 0c-46.933 0-85.333-38.4-85.333-85.333v-128c0-46.933 38.4-85.333 85.333-85.333h256c46.933 0 85.333 38.4 85.333 85.333v128zM682.667 234.667c0-25.6-17.067-42.667-42.667-42.667h-256c-25.6 0-42.667 17.067-42.667 42.667v128c0 25.6 17.067 42.667 42.667 42.667h256c25.6 0 42.667-17.067 42.667-42.667v-128zM853.333 576c-12.8 0-21.333 8.533-21.333 21.333v128c0 12.8 8.533 21.333 21.333 21.333s21.333-8.533 21.333-21.333v-128c0-12.8-8.533-21.333-21.333-21.333zM853.333 576h-128c-12.8 0-21.333 8.533-21.333 21.333s8.533 21.333 21.333 21.333h128c12.8 0 21.333-8.533 21.333-21.333s-8.533-21.333-21.333-21.333zM512-42.667c-234.667 0-426.667 192-426.667 426.667s192 426.667 426.667 426.667c136.533 0 264.533-64 345.6-174.933 8.533-8.533 4.267-21.333-4.267-29.867s-21.333-4.267-29.867 4.267c-72.533 98.133-187.733 157.867-311.467 157.867-213.333 0-384-170.667-384-384 0-213.333 170.667-384 384-384 213.333 0 384 170.667 384 384 0 12.8 8.533 21.333 21.333 21.333s21.333-8.533 21.333-21.333c0-234.667-192-426.667-426.667-426.667zM405.333 426.667c-12.8 0-21.333 8.533-21.333 21.333v85.333c0 72.533 59.733 128 128 128 72.533 0 128-59.733 128-128 0-12.8-8.533-21.333-21.333-21.333s-21.333 8.533-21.333 21.333c0 46.933-38.4 85.333-85.333 85.333-46.933 0-85.333-38.4-85.333-85.333v-85.333c0-12.8-8.533-21.333-21.333-21.333z"  horiz-adv-x="1024" />

    
    <glyph glyph-name="heimingdan" unicode="&#59467;" d="M783.744 337.92c-132.544 0-240-104.192-240-232.832s107.456-232.96 240-232.96c132.48 0 240 104.32 240 232.96 0 128.64-107.52 232.896-240 232.896zM604.8 105.152c0 46.08 18.816 90.24 52.416 122.752a181.76 181.76 0 0 0 235.2 14.4l-259.584-229.696a168.576 168.576 0 0 0-27.968 92.544H604.8z m178.944-173.632a180.8 180.8 0 0 0-108.672 36.48l259.584 229.76c17.536-26.944 28.032-58.56 28.032-92.608 0-95.936-80.128-173.632-178.944-173.632zM585.6 298.368c2.88-0.768 5.76-1.664 8.96-1.664a32.576 32.576 0 0 1 35.84 3.84 30.272 30.272 0 0 1 9.088 33.792 31.744 31.744 0 0 1-29.312 20.416l0.384 0.832c-1.088 0.384-2.24 0.64-3.328 1.088l-0.64 0.128a459.072 459.072 0 0 1-23.424 7.68c89.344 49.408 150.272 141.568 150.272 248.512C731.008 769.792 599.296 895.744 437.76 895.744c-161.664 0-293.376-125.888-295.808-282.752 0-110.336 64.832-204.928 158.912-252.992-174.528-59.52-293.632-216.64-300.032-396.032H1.28c0-0.832-0.448-1.472-0.448-2.304 0-17.28 14.4-31.296 32.192-31.296 22.208 0 38.848 14.016 38.848 31.296 0 0.832-0.384 1.472-0.448 2.304h0.64c8.256 199.04 170.048 351.68 377.152 351.68 48 0 93.824-2.048 136.192-17.664l0.192 0.448zM437.76 389.824c-127.104 0-230.144 99.904-230.144 223.232S310.656 836.288 437.76 836.288c127.104 0 230.08-99.904 230.08-223.232S564.736 389.824 437.76 389.824z"  horiz-adv-x="1024" />

    
    <glyph glyph-name="xiugai" unicode="&#58922;" d="M684.203 778.752c15.893 15.872 42.154 15.36 58.922-1.408l90.518-90.517c16.661-16.662 17.344-42.987 1.429-58.923L389.419 182.251c-7.936-7.915-23.104-16.747-34.219-19.776L211.499 123.22c-21.91-5.994-35.115 7.104-29.568 28.95l37.248 146.773c2.773 10.944 11.562 26.347 19.392 34.176l445.653 445.653zM268.736 302.933c-2.901-2.901-8.107-12.074-9.13-16.021l-29.12-114.773 111.957 30.57c4.437 1.216 13.632 6.55 16.81 9.728l445.654 445.654-90.518 90.496-445.653-445.654z m414.059 414.08l90.517-90.517-30.187-30.187-90.496 90.518 30.166 30.165zM320.768 354.965l90.496-90.517-30.165-30.165-90.518 90.496 30.166 30.186zM170.667 21.333c0 11.776 9.429 21.334 21.461 21.334h661.077a21.333 21.333 0 1 0 0-42.667H192.128a21.333 21.333 0 0 0-21.461 21.333z"  horiz-adv-x="1024" />

    
    <glyph glyph-name="chaxun1" unicode="&#58894;" d="M465.67936 178.7136c-141.1584 0-256 114.8416-256 256s114.8416 256 256 256 256-114.8416 256-256-114.8416-256-256-256z m0 471.04c-118.57408 0-215.04-96.46592-215.04-215.04s96.46592-215.04 215.04-215.04 215.04 96.46592 215.04 215.04-96.46592 215.04-215.04 215.04zM744.192 128.96256a20.41344 20.41344 0 0 0-14.47936 6.00064l-108.61056 108.61056a20.48 20.48 0 1 0 28.95872 28.95872l108.61056-108.61056a20.48 20.48 0 0 0-14.47936-34.95936zM808.3456 104.98048l-21.72416-21.72416a20.53632 20.53632 0 0 0-28.96384 0l-79.64672 79.64672a20.53632 20.53632 0 0 0 0 28.96384l21.72416 21.72416a20.53632 20.53632 0 0 0 28.96384 0l79.64672-79.64672a20.53632 20.53632 0 0 0 0-28.96384z"  horiz-adv-x="1024" />

    
    <glyph glyph-name="baimingdan" unicode="&#58986;" d="M736 384c123.52 0 224-100.48 224-224S859.52-64 736-64 512 36.48 512 160s100.48 224 224 224z m0 64a288 288 0 1 1 0-576 288 288 0 0 1 0 576z m156.416-245.824l-44.864 45.696-142.528-139.904-75.584 74.816-44.992-45.504 120.448-119.168 187.52 184.064z m-164.16 309.44c2.048 0.064 4.032 0.32 6.144 0.32l-1.6 0.064c-1.536 0-3.008-0.384-4.544-0.384zM732.8 512l1.6-0.064L736 512c4.352 0 8.576-0.512 12.928-0.64C759.872 541.568 766.4 573.888 766.4 608a288 288 0 1 1-576 0c0-105.472 57.408-196.8 142.08-246.976A480 480 0 0 1 0-64h64a416.192 416.192 0 0 0 353.216 379.008c12.48 25.344 27.712 49.088 45.632 70.528C346.688 393.664 254.4 489.792 254.4 608c0 123.52 100.48 224 223.936 224S702.4 731.52 702.4 608a221.44 221.44 0 0 0-25.088-100.8c2.432 0.384 4.992 0.32 7.36 0.64 14.272 2.112 28.8 3.456 43.584 3.776 1.536 0 3.008 0.384 4.544 0.384z m1.6-0.064c4.864-0.064 9.664-0.512 14.464-0.704l0.064 0.128c-4.352 0.128-8.576 0.64-12.928 0.64l-1.6-0.064z m-6.144-0.32z"  horiz-adv-x="1024" />

    
    <glyph glyph-name="jiaosequanxian" unicode="&#59293;" d="M966.170611 167.974419h-6.877474v43.981513a137.592359 137.592359 0 0 1-247.102894 83.358979 35.888686 35.888686 0 0 1-5.590628 4.389573 457.187539 457.187539 0 0 1-93.139003 45.425639l-1.129565 0.443246a296.431964 296.431964 0 0 1 144.069481 254.109053C756.400528 763.025985 623.469408 896 460.08295 896S163.765372 763.025985 163.765372 599.682422a296.431964 296.431964 0 0 1 143.897901-254.008965A460.233073 460.233073 0 0 1 0.621984-87.993409a35.745703 35.745703 0 0 1 71.491406 0c0 200.30462 152.591256 365.635645 347.648407 385.867713l1.129564 0.114386c2.65948 0.271667 5.318961 0.50044 7.992739 0.714914l1.973163 0.157281c2.473603 0.185878 4.947205 0.32886 7.420808 0.471843l2.373515 0.142983c2.530796 0.128685 5.07589 0.214474 7.620984 0.285966l2.087549 0.071491q4.832819 0.114386 9.694234 0.128685H467.532354l3.574571-0.100088 3.731851-0.114387 4.518257-0.200176 2.516497-0.128684 5.376154-0.328861 1.100968-0.085789a386.167977 386.167977 0 0 0 179.872376-59.509446 35.559825 35.559825 0 0 1 17.572588-5.547733 138.064203 138.064203 0 0 1-1.715794-21.990757v-43.981513h-6.877473a57.193125 57.193125 0 0 1-57.193125-57.193124v-181.58817a57.193125 57.193125 0 0 1 57.193125-57.193125h288.968262a57.193125 57.193125 0 0 1 57.193124 57.193125v181.58817a57.193125 57.193125 0 0 1-57.193124 57.193124zM235.256777 599.682422C235.256777 723.648519 336.116852 824.508594 460.08295 824.508594s224.826173-100.860075 224.826172-224.826172S583.991854 374.856249 460.08295 374.856249 235.256777 475.716324 235.256777 599.682422zM741.272947 211.955932a80.456428 80.456428 0 0 0 160.912856 0v-43.981513H741.272947z m224.897664-282.748509H677.130858v181.58817h289.039753v-181.58817zM768.296698 48.583772h107.365793v-57.193125H768.296698z"  horiz-adv-x="1024" />

    
    <glyph glyph-name="yuyuejilu" unicode="&#59074;" d="M680.8 568H808c21.6 0 32.8 14.4 32.8 29.6 0 14.4-11.2 29.6-32.8 29.6H711.2V725.6c0 19.2-14.4 30.4-28.8 30.4s-28.8-10.4-28.8-30.4v-127.2c0-16.8 12-30.4 27.2-30.4zM708 425.6c114.4 0 208 93.6 208 208s-93.6 208-208 208c-56 0-108-21.6-148-61.6-39.2-39.2-60.8-91.2-60-146.4 0-114.4 92.8-208 208-208zM560.8 632.8c0 20 4 39.2 11.2 57.6 8 17.6 18.4 33.6 32 47.2s28.8 24 46.4 32c18.4 8 37.6 11.2 57.6 11.2s39.2-4 57.6-11.2c17.6-8 33.6-18.4 47.2-32 13.6-13.6 24-28.8 32-46.4 8-18.4 11.2-37.6 11.2-57.6s-4-39.2-11.2-57.6c-7.2-17.6-18.4-32.8-32-47.2-13.6-13.6-28.8-24-46.4-32-36.8-15.2-78.4-15.2-114.4 0-17.6 8-33.6 18.4-47.2 32-13.6 13.6-24 28.8-32 46.4-8 19.2-12 38.4-12 57.6zM244.8 269.6c-27.2 0-41.6-18.4-41.6-36.8s13.6-37.6 41.6-38.4h476.8c26.4 0 40 18.4 40 37.6 0 18.4-13.6 37.6-40 37.6H244.8zM861.6 366.4c-16 0-32.8-11.2-32.8-32.8v-356H314.4V100.8c0 19.2-16 35.2-35.2 35.2H155.2V740h248c22.4 0 34.4 16.8 34.4 32.8s-12 32.8-34.4 32.8H128.8c-17.6 0-39.2-15.2-39.2-34.4v-668.8c0-8 2.4-15.2 7.2-20.8 5.6-6.4 31.2-32 160-160 6.4-6.4 16-10.4 24.8-10.4H856c19.2 0 38.4 24.8 38.4 42.4V333.6c0 20.8-16.8 32.8-32.8 32.8z m-612.8-296v-50.4l-50.4 50.4h50.4zM201.6 364.8c0-9.6 4-19.2 10.4-25.6 4.8-4.8 14.4-11.2 29.6-11.2h251.2c15.2 0 24.8 6.4 30.4 11.2 7.2 7.2 11.2 16 11.2 26.4 0 18.4-14.4 37.6-41.6 37.6H242.4c-26.4 0-40.8-20-40.8-38.4zM235.2 536.8c-19.2 0-33.6-16-33.6-37.6 0-8.8 2.4-17.6 8-24 6.4-8 15.2-12.8 25.6-12.8h187.2c10.4 0 20 4.8 25.6 12.8 4.8 6.4 8 15.2 8 24.8 0 18.4-12 37.6-33.6 37.6H235.2z"  horiz-adv-x="1024" />

    
    <glyph glyph-name="export" unicode="&#58973;" d="M62 654.23730469v-575.23095703c0-79.565625 64.27089844-143.81894531 143.81806641-143.81894532h566.23535156c79.565625 0 143.81806641 64.25244141 143.8180664 143.81894532V249.77167969000004H825.99013672v-116.82861328c0-59.77617187-48.09902344-107.87431641-107.87431641-107.87431641H259.73457031c-59.77529297 0-107.85322266 48.09902344-107.85322265 107.87431641V654.23730469H62zM646.22832031 699.17841797S241.76269531 680.30830078 241.76269531 294.71367188c0 0 98.87783203 179.76181641 404.465625 179.7618164v-134.82158203l314.58427735 224.70380859L646.22832031 834v-134.82158203z"  horiz-adv-x="1024" />

    
    <glyph glyph-name="beidaoqiangyewucheliang" unicode="&#58931;" d="M684.6 653.5h115.7c8.5 0 18.7 6.7 19.4 15.2l-2.9 11.6-8 21.4c-0.7 4-2.3 4.8-4.9 8.2H681.2c-2.6-3.3-4.3-4-5.1-8.2l-0.1-0.5-7.8-20.9-2.9-11.6c0.6-8.5 10.8-15.2 19.3-15.2z m-11-36.8c-9.8 0-17.8-8-17.8-17.8s8-17.8 17.8-17.8 17.8 8 17.8 17.8c0.1 9.9-7.9 17.8-17.8 17.8z m94.3-2.3h-50c-2.9 0-5.3-2.4-5.3-5.3v-14.9c0-2.9 2.4-5.3 5.3-5.3h50c2.9 0 5.3 2.4 5.3 5.3v14.9c0 3-2.4 5.3-5.3 5.3z m43.4 2.3c-9.8 0-17.8-8-17.8-17.8s8-17.8 17.8-17.8 17.8 8 17.8 17.8c0 9.9-8 17.8-17.8 17.8zM742.4 832C632.3 832 543 742.7 543 632.6s89.3-199.4 199.4-199.4 199.4 89.3 199.4 199.4S852.5 832 742.4 832z m126.3-170.8c0-3.6-2.9-6.6-6.6-6.6l-8.8-1.5c2.8-5.6 4.5-11.9 4.5-19.3l3.3-37.9c0-1.1-0.1-2.2-0.2-3.3 0.1-0.7 0.2-1.4 0.2-2.1v-45.7c0-6.5-5.3-11.8-11.8-11.8h-18c-6.5 0-11.8 5.3-11.8 11.8v14.7H665.3v-14.7c0-6.5-5.3-11.8-11.8-11.8h-18c-6.5 0-11.8 5.3-11.8 11.8v45.7c0 0.7 0.1 1.5 0.2 2.1-0.1 1.1-0.2 2.2-0.2 3.3l3.3 37.9c0 7.4 1.6 13.7 4.4 19.2l-9 1.5c-3.6 0-6.6 3-6.6 6.6V667c0 3.6 3 6.6 6.6 6.6h23.7c1.2 0 2.3-0.4 3.3-0.9l10.7 32.3c2.9 15.2 13.9 27.1 32.1 27.1h100.3c15.8 0 28.7-8.8 32.1-27.1l10.7-32.1c0.9 0.5 2 0.8 3.1 0.8h23.7c3.6 0 6.6-2.9 6.6-6.6v-5.9zM297.6 551.6c-17.2 0-30.8-13.5-30.8-30.8 0-17.2 13.5-30.8 30.8-30.8H565c-13.6 18.5-24.7 39.2-33.7 61.6H297.6z m0-246.2h246.2c17.2 0 30.8 13.5 30.8 30.8 0 17.2-13.5 30.8-30.8 30.8H297.6c-17.2 0-30.8-13.5-30.8-30.8 0.1-17.3 13.6-30.8 30.8-30.8z m0-184.7h307.8c17.2 0 30.8 13.5 30.8 30.8 0 17.2-13.5 30.8-30.8 30.8H297.6c-17.2 0-30.8-13.5-30.8-30.8 0.1-17.3 13.6-30.8 30.8-30.8zM820.8 59.1c0-33.9-27.7-61.6-61.6-61.6h-554c-33.9 0-61.6 27.7-61.6 61.6v554c0 33.9 27.7 61.6 61.6 61.6H503c-1.9 20.6-2.8 41.3-2.5 61.6H205.3c-67.7 0-123.1-55.4-123.1-123.1v-554c0-67.7 55.4-123.1 123.1-123.1h554c67.7 0 123.1 55.4 123.1 123.1V413.1c-19.8-9.8-40.4-15.5-61.6-18.2v-335.8z"  horiz-adv-x="1024" />

    
    <glyph glyph-name="user-line" unicode="&#58933;" d="M512 414.72c92.9792 0 168.6528 75.6736 168.6528 168.6528 0 92.9792-75.6736 168.6528-168.6528 168.6528-92.9792 0-168.6528-75.6736-168.6528-168.6528 0-92.9792 75.6736-168.6528 168.6528-168.6528z m0 296.3456c70.3488 0 127.6928-57.2416 127.6928-127.6928S582.3488 455.68 512 455.68s-127.6928 57.344-127.6928 127.6928 57.344 127.6928 127.6928 127.6928zM800.256 211.86559999999997c-15.7696 37.2736-38.4 70.656-67.1744 99.4304-28.7744 28.7744-62.2592 51.4048-99.4304 67.1744-38.6048 16.384-79.4624 24.6784-121.5488 24.6784s-82.944-8.2944-121.5488-24.6784c-37.2736-15.7696-70.656-38.4-99.4304-67.1744-28.7744-28.7744-51.4048-62.2592-67.1744-99.4304-16.384-38.6048-24.6784-79.4624-24.6784-121.5488v-33.3824c0-22.6304 18.3296-40.96 40.96-40.96h543.9488c22.6304 0 40.96 18.3296 40.96 40.96v33.3824c-0.2048 42.0864-8.4992 82.944-24.8832 121.5488z m-16.2816-134.4512c0-11.264-9.216-20.48-20.48-20.48H260.5056c-11.264 0-20.48 9.216-20.48 20.48v12.9024c0 149.8112 121.856 271.7696 271.6672 271.9744 149.8112 0.2048 272.384-124.3136 272.384-274.1248v-10.752z"  horiz-adv-x="1024" />

    
    <glyph glyph-name="jipiaoyudingcheliangyuyueshenqingbiao" unicode="&#58903;" d="M383.9 307.7h96.3v-51.4h-96.3zM64.2 96.7c0.2-53.1 43.1-96.1 96.3-96.3h703.2c52.8 0 95.5 43.5 95.5 96.3V672c0 25.3-10 49.6-27.9 67.6-17.9 17.9-42.3 27.9-67.6 27.9H160.4v-0.1c-52.8 0-96.3-42.6-96.3-95.4m51.4 12.5c0 17.7 14.7 31.6 32.4 31.6H876c8.4 0.1 16.5-3.2 22.4-9.2 5.9-5.9 9.3-14 9.2-22.4v-600.3c0-17.7-13.9-32.4-31.6-32.4H148c-17.8 0.2-32.1 14.6-32.4 32.4M325.4 141.1c-16.4 0.8-29.3 14.2-29.3 30.7s12.9 17.5 29.3 18.2c16.4-0.8 29.3-1.8 29.3-18.2s-12.8-30-29.3-30.7m209.5 93.4l-16 129c-6 48-46.8 84.1-95.2 84.4h-48.3l-91.6 174.5c-5.5 10.6-16.4 17.3-28.4 17.3h-122v-51.4h115.2L312.7 448v-0.1H133.5v-51.4h302.7c16.1 0 29.8-12.5 31.7-28.4l16-141.3c1.2-8.8-1.6-17.8-7.8-24.4-6.1-6.7-14.9-10.5-23.9-10.1h-38.1c-13 31.9-47.8 63.3-88.9 63.3-41.2 0-75.9-31.3-89-63.3H132.5v-51.4h104.1c13.4-31.9 47.8-74.5 88.5-74.5s75.2 42.6 88.4 74.5h25.9c27.5 0 53.6 11.1 71.8 31.6 18.6 20.5 27.1 34.7 23.7 62M698.6 618.5c67.4 0 122.3-54.9 122.3-122.3S766 373.9 698.6 373.9s-122.3 54.8-122.3 122.3 54.9 122.3 122.3 122.3m0 40.8c-90 0-163-73-163-163s73-163 163-163 163 73 163 163-73 163-163 163z m0 0M739.4 435.1c-5.2 0-10.4 2-14.4 6l-40.7 40.7c-3.7 3.7-6 8.8-6 14.4v81.6c0 11.3 9.1 20.4 20.4 20.4 11.3 0 20.4-9.1 20.4-20.4v-73.1l34.8-34.8c8-8 8-20.9 0-28.8-4.1-4-9.3-6-14.5-6z m0 0"  horiz-adv-x="1024" />

    
    <glyph glyph-name="yuyue" unicode="&#59141;" d="M758.591876 167.117988h75.264991c17.502081 0 31.690522-14.188441 31.690522-31.690522 0-17.502081-14.188441-31.690522-31.690522-31.690522H726.901354c-17.502081 0-31.690522 14.188441-31.690522 31.690522 0 2.558019 0.303041 5.044735 0.87545 7.427466A31.77371 31.77371 0 0 0 695.210832 150.282398V255.257253c0 17.502081 14.188441 31.690522 31.690522 31.690523 17.502081 0 31.690522-14.188441 31.690522-31.690523v-88.139265z m59.419729 260.45648c-17.502081 0-31.690522 14.188441-31.690522 31.690522V760.324952a7.922631 7.922631 0 0 1-7.92263 7.92263H134.68472a7.922631 7.922631 0 0 1-7.922631-7.92263v-744.727273a7.922631 7.922631 0 0 1 7.922631-7.922631h286.205029c17.502081 0 31.690522-14.188441 31.690522-31.690522 0-17.502081-14.188441-31.690522-31.690522-31.690522H95.071567c-17.502081 0-31.690522 14.188441-31.690523 31.690522V799.938104c0 17.502081 14.188441 31.690522 31.690523 31.690523h722.940038c17.502081 0 31.690522-14.188441 31.690523-31.690523v-340.673114c0-17.502081-14.188441-31.690522-31.690523-31.690522zM208.959381 627.62089h466.444874c17.502081 0 31.690522-14.188441 31.690523-31.690522 0-17.502081-14.188441-31.690522-31.690523-31.690523H208.959381c-17.502081 0-31.690522 14.188441-31.690522 31.690523 0 17.502081 14.188441 31.690522 31.690522 31.690522z m4.951644-204.007737h209.94971c17.502081 0 31.690522-14.188441 31.690522-31.690522 0-17.502081-14.188441-31.690522-31.690522-31.690523H213.911025c-17.502081 0-31.690522 14.188441-31.690522 31.690523 0 17.502081 14.188441 31.690522 31.690522 31.690522z m0-204.007737h209.94971c17.502081 0 31.690522-14.188441 31.690522-31.690522 0-17.502081-14.188441-31.690522-31.690522-31.690523H213.911025c-17.502081 0-31.690522 14.188441-31.690522 31.690523 0 17.502081 14.188441 31.690522 31.690522 31.690522z m301.059961 204.007737h43.574469c17.502081 0 31.690522-14.188441 31.690522-31.690522 0-17.502081-14.188441-31.690522-31.690522-31.690523h-43.574469c-17.502081 0-31.690522 14.188441-31.690522 31.690523 0 17.502081 14.188441 31.690522 31.690522 31.690522z m211.930368-479.319149c-123.608882 0-223.814313 100.205431-223.814313 223.814313s100.205431 223.814313 223.814313 223.814314 223.814313-100.205431 223.814313-223.814314-100.205431-223.814313-223.814313-223.814313z m0 55.458414c92.979992 0 168.355899 75.375907 168.355899 168.355899s-75.375907 168.355899-168.355899 168.3559-168.355899-75.375907-168.355899-168.3559 75.375907-168.355899 168.355899-168.355899z"  horiz-adv-x="1024" />

    
    <glyph glyph-name="baishitong_jiashu" unicode="&#59080;" d="M326.4 388.266667c-81.066667 57.6-102.4 168.533333-44.8 251.733333 57.6 83.2 168.533333 102.4 251.733333 44.8 83.2-57.6 102.4-168.533333 44.8-251.733333-14.933333-21.333333-32-38.4-53.333333-51.2 128-44.8 219.733333-166.4 219.733333-309.333334 0-12.8-10.666667-23.466667-23.466666-23.466666-12.8 0-23.466667 10.666667-23.466667 23.466666 0 155.733333-125.866667 283.733333-283.733333 283.733334-155.733333 0-283.733333-125.866667-283.733334-283.733334 0-12.8-10.666667-23.466667-23.466666-23.466666-12.8 0-23.466667 10.666667-23.466667 23.466666 6.4 149.333333 106.666667 275.2 243.2 315.733334z m102.4 12.8c74.666667 0 136.533333 61.866667 136.533333 136.533333 0 74.666667-61.866667 136.533333-136.533333 136.533333-74.666667 0-136.533333-59.733333-136.533333-136.533333 2.133333-76.8 61.866667-136.533333 136.533333-136.533333z m0 0M712.533333 384c21.333333 12.8 38.4 29.866667 53.333334 51.2 57.6 83.2 36.266667 194.133333-44.8 251.733333C682.666667 712.533333 637.866667 723.2 597.333333 716.8l19.2-44.8h2.133334c74.666667 0 136.533333-61.866667 136.533333-136.533333 0-70.4-53.333333-128-123.733333-134.4l12.8-49.066667c138.666667-17.066667 247.466667-136.533333 247.466666-279.466667 0-12.8 10.666667-23.466667 23.466667-23.466666 12.8 0 23.466667 10.666667 23.466667 23.466666-4.266667 142.933333-98.133333 266.666667-226.133334 311.466667z"  horiz-adv-x="1024" />

    
    <glyph glyph-name="shuliang" unicode="&#58880;" d="M704 512H189.866667c-17.066667 0-32 14.933333-32 32S172.8 576 189.866667 576H704c17.066667 0 32-14.933333 32-32S721.066667 512 704 512zM578.133333 352H192c-17.066667 0-32 14.933333-32 32s14.933333 32 32 32h386.133333c17.066667 0 32-14.933333 32-32s-14.933333-32-32-32zM448 192H192c-17.066667 0-32 14.933333-32 32S174.933333 256 192 256h256c17.066667 0 32-14.933333 32-32 0-19.2-14.933333-32-32-32zM416-29.866667H113.066667c-12.8 0-21.333333 10.666667-21.333334 21.333334V776.533333c0 14.933333 10.666667 25.6 25.6 25.6h689.066667c12.8 0 25.6-10.666667 25.6-25.6V448c0-19.2 17.066667-34.133333 36.266667-32 17.066667 2.133333 29.866667 14.933333 29.866666 32V832c0 21.333333-17.066667 38.4-38.4 38.4H64C42.666667 870.4 25.6 853.333333 25.6 832v-889.6c0-21.333333 17.066667-38.4 38.4-38.4h352c19.2 0 34.133333 14.933333 34.133333 34.133333 0 17.066667-14.933333 32-34.133333 32zM806.4 290.133333L576 59.733333l-12.8-157.866666 157.866667 12.8 230.4 230.4c40.533333 40.533333 40.533333 104.533333 0 145.066666-40.533333 38.4-106.666667 38.4-145.066667 0z m98.133333-93.866666L678.4-29.866667c-12.8-12.8-34.133333-12.8-46.933333 0-12.8 12.8-12.8 34.133333 0 46.933334l226.133333 226.133333c12.8 12.8 34.133333 12.8 46.933333 0 12.8-12.8 12.8-34.133333 0-46.933333z"  horiz-adv-x="1024" />

    
    <glyph glyph-name="xiangqing" unicode="&#59054;" d="M160 896h704a128 128 0 0 0 128-128v-768a128 128 0 0 0-128-128H160a128 128 0 0 0-128 128V768a128 128 0 0 0 128 128z m0-64a64 64 0 0 1-64-64v-768a64 64 0 0 1 64-64h704a64 64 0 0 1 64 64V768a64 64 0 0 1-64 64H160z m414.72-254.848H383.808A31.616 31.616 0 0 0 352 608.512C352 625.92 366.272 640 383.808 640H574.72c17.536 0 31.808-14.08 31.808-31.424a31.616 31.616 0 0 0-31.808-31.424z m131.776-192H379.264c-15.04 0-27.264 14.08-27.264 31.36C352 433.92 364.16 448 379.264 448h327.296c15.04 0 27.2-14.08 27.2-31.488 0-17.28-12.16-31.36-27.264-31.36z m0-192H379.264c-15.04 0-27.264 14.08-27.264 31.36 0 17.408 12.16 31.488 27.264 31.488h327.296c15.04 0 27.2-14.08 27.2-31.488 0-17.28-12.16-31.36-27.264-31.36zM255.36 640h0.768a31.424 31.424 0 1 0 0-62.848h-0.768a31.424 31.424 0 1 0 0 62.848z m0-192h0.768a31.424 31.424 0 1 0 0-62.848h-0.768a31.424 31.424 0 1 0 0 62.848z m0-192h0.768a31.424 31.424 0 1 0 0-62.848h-0.768a31.424 31.424 0 0 0 0 62.848z"  horiz-adv-x="1024" />

    
    <glyph glyph-name="jiesong" unicode="&#58893;" d="M939.66336 197.02272h-51.3024l-34.97984-253.27616a29.80352 29.80352 0 0 0-27.9808-25.66656h-170.23488a29.80352 29.80352 0 0 0-27.9808 25.64608l-37.31456 253.27616h-55.96672a26.94144 26.94144 0 0 0-27.9808 27.9808v124.55424A230.4 230.4 0 0 0 736.768 575.70304c125.952 0 228.5312-102.58944 230.86592-228.49536v-122.20416a26.94144 26.94144 0 0 0-27.97056-27.9808z m-30.31552 152.51456a171.67872 171.67872 0 0 1-172.544 170.20928c-93.27616 0-172.544-74.61376-172.544-170.20928v-96.55296h53.63712a29.80352 29.80352 0 0 0 27.9808-25.6512l34.97984-253.27616h118.8864l34.97984 253.27616a29.80352 29.80352 0 0 0 27.9808 25.6512v2.3296h46.63808v94.208z m-170.22976 238.2848c-74.624 0-137.58464 62.976-137.58464 139.89376A136.35584 136.35584 0 0 0 739.11808 865.28a138.33728 138.33728 0 0 0 137.58464-139.89376 136.35584 136.35584 0 0 0-137.58464-137.56416z m0 219.17184a82.61632 82.61632 0 0 1-81.61792-81.60768 81.61792 81.61792 0 0 1 163.23584 0 82.61632 82.61632 0 0 1-81.61792 81.60256zM219.08992 269.312a60.63104 60.63104 0 1 0 60.63104-60.62592A60.62592 60.62592 0 0 0 219.08992 269.312z m51.3024 344.16128L205.09696 462.848h279.83872a360.30976 360.30976 0 0 1-16.32256-53.62688H184.11008L144.46592 311.296v-205.184a31.87712 31.87712 0 0 1 32.65024-32.64c153.9072 0 284.49792 0 387.10272 2.3296l6.99904-48.96256a68.18816 68.18816 0 0 0-20.992-4.66432H338.0224v-81.60256a31.87712 31.87712 0 0 0-32.64512-32.64512h-41.984a31.87712 31.87712 0 0 0-32.64512 32.64512v81.58208H177.11616a86.07744 86.07744 0 0 0-86.28224 86.272v209.8432a14.00832 14.00832 0 0 0 2.3296 9.32352l23.3216 67.61984L72.192 420.864a31.29344 31.29344 0 0 0-11.65824 44.29824l6.99392 9.32864a31.30368 31.30368 0 0 0 44.29312 11.65312l34.97984-20.992L226.08896 650.752a28.672 28.672 0 0 0 25.6512 16.32256h314.81344a212.86912 212.86912 0 0 1 34.97984-53.62688H270.39232z"  horiz-adv-x="1024" />

    
    <glyph glyph-name="Issue" unicode="&#58982;" d="M95.3824 9.088V758.912a61.376 61.376 0 0 0 62.72 67.2h702.08a61.376 61.376 0 0 0 62.72-67.2v-271.424h63.36V758.912A133.76 133.76 0 0 1 857.6224 896H160.6624A137.408 137.408 0 0 1 32.0224 758.912v-749.824A133.76 133.76 0 0 1 160.6624-128H416.0224v67.2H160.6624a67.2 67.2 0 0 0-65.28 69.888z m161.28 612.8a35.008 35.008 0 0 1 0-69.888h510.08a35.008 35.008 0 0 1 0 69.888H256.6624z m254.72-271.488H256.6624a35.008 35.008 0 0 1 0-69.888h254.72a32 32 0 0 1 33.28 34.944 34.624 34.624 0 0 1-33.28 34.944z m472.32-212.288a30.464 30.464 0 0 1-22.4 10.048 30.784 30.784 0 0 1-23.04-10.048l-141.44-150.528V315.456a31.552 31.552 0 0 1-32.64 34.944 31.232 31.232 0 0 1-32.64-34.944v-327.872l-133.76 142.4a30.656 30.656 0 0 1-45.44 0 35.2 35.2 0 0 1 0-48.32L736.0224-114.56c7.68-8.064 7.68-8.064 12.8-8.064h25.6a66.624 66.624 0 0 1 12.16 8.064l184.32 196.224a36.8 36.8 0 0 1 12.8 56.448z m0 0"  horiz-adv-x="1024" />

    
    <glyph glyph-name="add-sy" unicode="&#58881;" d="M512.277-58.412000000000035c-118.89 0-230.659 46.078-314.73 129.73S67.12 266.33399999999995 67.12 384.778s46.327 229.744 130.398 313.427 195.82 129.73 314.73 129.73 230.659-46.078 314.72-129.73S957.397 503.19 957.397 384.817 911.078 155.03999999999996 826.97 71.35799999999995s-195.8-129.77-314.692-129.77z m0 822.784c-101.972 0-197.809-39.494-269.865-111.222s-111.7-166.997-111.7-268.373 39.653-196.695 111.67-268.335S410.246 5.220000000000027 512.248 5.220000000000027s197.809 39.484 269.865 111.222 111.7 166.998 111.67 268.374c-0.03 101.375-39.654 196.665-111.67 268.303S614.22 764.3720000000001 512.277 764.3720000000001z m222.585-347.8H544.073V607.36c-0.76 17.561-15.613 31.18-33.173 30.419-16.495-0.714-29.704-13.924-30.419-30.419v-190.787H289.703c-17.56-0.761-31.179-15.614-30.419-33.174 0.715-16.494 13.924-29.703 30.42-30.418H480.48v-190.788c0.761-17.56 15.614-31.179 33.174-30.419 16.494 0.715 29.703 13.925 30.418 30.42V352.98h190.788c17.56-0.762 32.413 12.857 33.173 30.418 0.762 17.561-12.858 32.414-30.419 33.174a31.683 31.683 0 0 1-2.753 0z"  horiz-adv-x="1028" />

    
    <glyph glyph-name="shanchu" unicode="&#58998;" d="M799.305 34.377c0-34.377-28.014-62.39-62.39-62.39h-449.61a62.464 62.464 0 0 0-62.464 62.39V696.832h574.464v-662.455zM349.696 808.814c0 7.168 5.559 12.8 12.8 12.8h299.959c7.241 0 12.8-5.632 12.8-12.8v-37.596H349.696V808.814z m636.782-37.596H749.64V808.814C749.641 856.795 710.51 896 662.455 896H362.496a87.406 87.406 0 0 1-87.186-87.186v-37.596H37.669a37.522 37.522 0 1 1 0-75.19H149.65v-661.65c0-75.996 61.66-137.583 137.655-137.583h449.536a137.582 137.582 0 0 1 137.655 137.582V696.832h111.982c20.772 0 37.595 16.823 37.595 37.595a36.864 36.864 0 0 1-37.595 36.791zM512.073 84.773c20.773 0 37.596 16.822 37.596 37.595V522.459a37.522 37.522 0 1 1-75.191 0v-400.091c0-20.773 16.823-37.595 37.595-37.595z m-175.177 0c20.773 0 37.595 16.822 37.595 37.595V522.459a37.522 37.522 0 1 1-75.19 0v-400.091c0.731-20.773 17.554-37.595 37.595-37.595z m350.354 0c20.846 0 37.669 16.822 37.669 37.595V522.459a37.595 37.595 0 1 1-75.264 0v-400.091c0-20.773 16.823-37.595 37.595-37.595z"  horiz-adv-x="1024" />

    
    <glyph glyph-name="FTPdengluxinxi" unicode="&#58882;" d="M677.016 486.392c0 113.1-95.897 204.798-214.116 204.798-118.27 0-214.167-91.698-214.167-204.798-1.024-74.085 41.215-142.487 109.413-177.457-92.364-34.406-159.742-111.768-178.43-204.9-1.331-6.041 0-12.287 3.533-17.407 3.584-5.12 9.113-8.653 15.41-9.83h4.762a22.937 22.937 0 0 1 23.757 18.124c21.913 107.058 119.14 184.83 233.162 186.673h4.761c116.99 2.048 210.942 92.876 211.915 204.797z m-380.719 0c0 87.96 74.598 159.282 166.552 159.282 92.005 0 166.551-71.321 166.551-159.282-0.82-86.783-73.42-157.284-164.145-159.28h-7.168c-89.496 3.737-160.408 73.573-161.79 159.23z m330.748-204.797a20.992 20.992 0 0 1 6.553-16.486 23.04 23.04 0 0 1 17.152-6.195h118.988a23.91 23.91 0 0 1 20.48 11.315 21.81 21.81 0 0 1 0 22.68 23.91 23.91 0 0 1-20.48 11.367H650.75a23.296 23.296 0 0 1-23.705-22.681z m142.744-65.996h-190.36a24.064 24.064 0 0 1-20.582-11.366 21.913 21.913 0 0 1 0-22.784 24.064 24.064 0 0 1 20.583-11.366h190.359c13.158 0 23.807 10.24 23.807 22.783A23.296 23.296 0 0 1 769.79 215.6z m0-91.033H581.785a23.245 23.245 0 0 1-23.04-22.783c0-12.288 10.24-22.374 23.04-22.733h188.004a23.04 23.04 0 0 1 17.152 6.247 20.992 20.992 0 0 1 6.553 16.435 23.347 23.347 0 0 1-23.705 22.834zM601.599 849.14H242.947c-66.15 0-119.601-52.121-119.601-116.376v-697.848c0-64.255 53.503-116.376 119.601-116.376H780.95c66.047 0 119.55 52.121 119.55 116.325V616.49L661.4 849.089c-19.917 0.41-39.833 0.41-59.801 0zM601.24 895.68c20.48 0.41 41.062 0.41 61.542 0l17.51-0.563 265.93-258.762v-601.49c0-90.418-74.444-162.865-165.272-162.865H242.845c-90.674 0-165.17 72.447-165.17 162.865V732.764C77.626 823.182 152.069 895.68 242.948 895.68H601.24z"  horiz-adv-x="1024" />

    
    <glyph glyph-name="daoru" unicode="&#59316;" d="M870.4 76.8a51.2 51.2 0 0 0 0-102.4H153.6a51.2 51.2 0 0 0 0 102.4h716.8z m-52.5312 328.6016l-225.9968-261.2224a15.36 15.36 0 0 0-23.04 0L341.504 405.4016A15.1552 15.1552 0 0 0 353.28 430.08h124.16a15.3088 15.3088 0 0 1 11.008 4.7104 17.664 17.664 0 0 1 4.3008 11.1616C507.392 622.7968 358.912 727.3472 220.16 794.624a15.1552 15.1552 0 0 0 6.7584 28.7744c97.024-1.7408 366.2848-53.5552 437.1456-379.4432 1.6896-7.68 7.168-13.7216 15.0528-13.824h127.0784a15.1552 15.1552 0 0 0 11.6224-24.7808z"  horiz-adv-x="1024" />

    
    <glyph glyph-name="renyuan-yuyue" unicode="&#59120;" d="M921.6 512c-61.44 174.08-230.4 286.72-414.72 286.72C322.56 803.84 158.72 691.2 92.16 517.12c-66.56-174.08-15.36-368.64 128-486.4l-71.68-71.68c-20.48-20.48-20.48-51.2 0-71.68 5.12-10.24 20.48-15.36 30.72-15.36 15.36 0 25.6 5.12 35.84 15.36L302.08-25.6c128-66.56 276.48-66.56 404.48 0l87.04-87.04c20.48-20.48 51.2-20.48 71.68 0 20.48 20.48 20.48 51.2 0 71.68L788.48 25.6c143.36 122.88 194.56 317.44 133.12 486.4zM747.52 332.8c-10.24-10.24-20.48-15.36-35.84-15.36H486.4c-15.36 0-30.72 15.36-30.72 30.72V640c0 15.36 5.12 25.6 15.36 35.84 10.24 10.24 25.6 15.36 40.96 15.36 25.6-5.12 46.08-25.6 40.96-51.2v-225.28h153.6c25.6 0 46.08-20.48 51.2-40.96 0-15.36-5.12-30.72-10.24-40.96zM988.16 762.88C967.68 819.2 916.48 855.04 860.16 855.04c-40.96 0-81.92-20.48-107.52-51.2 76.8-46.08 143.36-107.52 189.44-189.44 46.08 30.72 66.56 92.16 46.08 148.48zM87.04 650.24c20.48 40.96 51.2 76.8 81.92 107.52 30.72 30.72 66.56 56.32 102.4 76.8C240.64 875.52 184.32 896 133.12 885.76c-51.2-10.24-92.16-51.2-102.4-102.4-10.24-46.08 10.24-102.4 56.32-133.12z"  horiz-adv-x="1024" />

    
    <glyph glyph-name="caidangongneng" unicode="&#59075;" d="M388.8 733.1c12 0 21.6-9.7 21.7-21.7v-239.6c0-12-9.7-21.6-21.7-21.7H149.2c-12 0-21.6 9.7-21.7 21.7V711.4c0 12 9.7 21.6 21.7 21.7h239.6m0 64.3H149.2c-22.8 0-44.7-9.1-60.8-25.2-16.1-16.1-25.2-38-25.2-60.8v-239.6c0-22.8 9.1-44.7 25.2-60.8 16.1-16.1 38-25.2 60.8-25.2h239.6c47.5 0 86 38.5 86 86V711.4c0 22.8-9.1 44.7-25.2 60.8-16.1 16.2-38 25.2-60.8 25.2z m347-35.6c5.7 0 11.3-2.3 15.3-6.3l138.6-138.6c8.5-8.5 8.5-22.2 0-30.6L751.1 447.6c-8.5-8.5-22.2-8.5-30.6 0L581.9 586.3c-8.5 8.5-8.5 22.2 0 30.6l138.6 138.6c4 4.1 9.5 6.3 15.3 6.3m0 64.3c-22.8 0-44.7-9-60.8-25.2L536.4 662.4c-16.1-16.1-25.2-38-25.2-60.8 0-22.8 9.1-44.7 25.2-60.8L675 402.2c33.6-33.6 88-33.6 121.6 0l138.6 138.6c16.1 16.1 25.2 38 25.2 60.8 0 22.8-9.1 44.7-25.2 60.8L796.6 801c-16.1 16.1-38 25.2-60.8 25.1z m-347-536.7c12 0 21.6-9.7 21.7-21.7v-239.6c0-12-9.7-21.6-21.7-21.7H149.2c-12 0-21.6 9.7-21.7 21.7V267.7c0 12 9.7 21.6 21.7 21.7h239.6m0 64.3H149.2c-22.8 0-44.7-9.1-60.8-25.2-16.1-16.1-25.2-38-25.2-60.8v-239.6c0-47.5 38.5-86 86-86h239.6c22.8 0 44.7 9.1 60.8 25.2 16.1 16.1 25.2 38 25.2 60.8V267.7c0 22.8-9.1 44.7-25.2 60.8-16.1 16.1-38 25.2-60.8 25.2z m445.9-64.3c12 0 21.6-9.7 21.7-21.7v-239.6c0-12-9.7-21.6-21.7-21.7H595.1c-12 0-21.6 9.7-21.7 21.7V267.7c0 12 9.7 21.6 21.7 21.7h239.6m0 64.3H595.1c-22.8 0-44.7-9.1-60.8-25.2-16.1-16.1-25.2-38-25.2-60.8v-239.6c0-47.5 38.5-86 86-86h239.6c47.5 0 86 38.5 86 86V267.7c0 22.8-9.1 44.7-25.2 60.8-16.1 16.1-38 25.2-60.8 25.2z m0 0"  horiz-adv-x="1024" />

    
    <glyph glyph-name="chaxun" unicode="&#58964;" d="M795.927273 384c0-13.963636 9.309091-23.272727 23.272727-23.272727s23.272727 9.309091 23.272727 23.272727c0 181.527273-148.945455 330.472727-330.472727 330.472727-13.963636 0-23.272727-9.309091-23.272727-23.272727s9.309091-23.272727 23.272727-23.272727c155.927273 0 283.927273-128 283.927273-283.927273zM840.145455 88.43636400000003c69.818182 79.127273 114.036364 181.527273 114.036363 295.563636 0 244.363636-197.818182 442.181818-442.181818 442.181818S69.818182 628.363636 69.818182 384c0-74.472727 18.618182-146.618182 53.527273-211.781818 6.981818-11.636364 20.945455-16.290909 32.581818-9.309091 11.636364 6.981818 16.290909 20.945455 9.309091 32.581818C132.654545 251.34545500000002 116.363636 318.836364 116.363636 384c0 218.763636 176.872727 395.636364 395.636364 395.636364s395.636364-176.872727 395.636364-395.636364-176.872727-395.636364-395.636364-395.636364c-79.127273 0-155.927273 23.272727-221.090909 67.490909-11.636364 6.981818-25.6 4.654545-32.581818-6.981818-6.981818-11.636364-4.654545-25.6 6.981818-32.581818C337.454545-32.581818 423.563636-58.18181800000002 512-58.18181800000002c114.036364 0 216.436364 44.218182 295.563636 114.036363l107.054546-107.054545c4.654545-4.654545 11.636364-6.981818 16.290909-6.981818s11.636364 2.327273 16.290909 6.981818c9.309091 9.309091 9.309091 23.272727 0 32.581818l-107.054545 107.054546z"  horiz-adv-x="1024" />

    
    <glyph glyph-name="fangzi" unicode="&#58950;" d="M1011.21728 534.464L576.72128 873.024c-37.12 30.656-95.36 30.592-132.416 0L13.13728 534.4a36.544 36.544 0 0 1-5.632-49.856c11.648-15.36 33.088-17.984 47.808-5.824l13.952 11.52v-511.808c0-60.928 60.544-106.432 114.688-106.432h680.384c53.504 0 89.472 42.752 89.472 106.368V491.264l15.36-12.608a32.896 32.896 0 0 1 47.744 6.016 36.544 36.544 0 0 1-5.696 49.792z m-397.632-435.328v-156.16H409.48928v280.64c0 41.28 31.936 85.632 102.08 85.632 70.208 0 102.08-44.352 102.08-85.632v-124.48h-0.064z"  horiz-adv-x="1024" />

    


  </font>
</defs>
</svg>
